PathFileType	4	(x/y/z)	TRC_MarkerData\Passive\Passive_Pref0005.trc
DataRate	CameraRate	NumFrames	NumMarkers	Units	OrigDataRate	OrigDataStartFrame	OrigNumFrames
240	240	4	50	mm	240	1	313
Frame#	Time	R_AC			L_AC			HEAD			STERN			C7			L_IC			R_IC			L_ASIS			R_ASIS			L_GT			R_GT			L_PSIS			R_PSIS			SACRAL			L_LAT_KNEE			L_MED_KNEE			R_LAT_KNEE			R_MED_KNEE			L_LAT_ANK			L_MED_ANK			R_LAT_ANK			R_MED_ANK			L_THIGH_PROX_POST			L_THIGH_PROX_ANT			L_THIGH_DIST_ANT			L_THIGH_DIST_POST			R_THIGH_PROX_POST			R_THIGH_PROX_ANT			R_THIGH_DIST_ANT			R_THIGH_DIST_POST			L_SHANK_PROX_POST			L_SHANK_PROX_ANT			L_SHANK_DIST_ANT			L_SHANK_DIST_POST			R_SHANK_PROX_POST			R_SHANK_PROX_ANT			R_SHANK_DIST_ANT			R_SHANK_DIST_POST			L_HEEL_LAT			L_HEEL_SUP			L_HEEL_MED			R_HEEL_LAT			R_HEEL_SUP			R_HEEL_MED			L_1ST_MET			L_5TH_MET			L_TOE			R_1ST_MET			R_5TH_MET			R_TOE			
		X1	Y1	Z1	X2	Y2	Z2	X3	Y3	Z3	X4	Y4	Z4	X5	Y5	Z5	X6	Y6	Z6	X7	Y7	Z7	X8	Y8	Z8	X9	Y9	Z9	X10	Y10	Z10	X11	Y11	Z11	X12	Y12	Z12	X13	Y13	Z13	X14	Y14	Z14	X15	Y15	Z15	X16	Y16	Z16	X17	Y17	Z17	X18	Y18	Z18	X19	Y19	Z19	X20	Y20	Z20	X21	Y21	Z21	X22	Y22	Z22	X23	Y23	Z23	X24	Y24	Z24	X25	Y25	Z25	X26	Y26	Z26	X27	Y27	Z27	X28	Y28	Z28	X29	Y29	Z29	X30	Y30	Z30	X31	Y31	Z31	X32	Y32	Z32	X33	Y33	Z33	X34	Y34	Z34	X35	Y35	Z35	X36	Y36	Z36	X37	Y37	Z37	X38	Y38	Z38	X39	Y39	Z39	X40	Y40	Z40	X41	Y41	Z41	X42	Y42	Z42	X43	Y43	Z43	X44	Y44	Z44	X45	Y45	Z45	X46	Y46	Z46	X47	Y47	Z47	X48	Y48	Z48	X49	Y49	Z49	X50	Y50	Z50	

1	0	-867.57	1493.9	500.43	-916.75	1515.4	95.709	-857.7	1828.9	308.86	-815.15	1469.7	295.8	-950.61	1549.3	304.23	NaN	NaN	NaN	NaN	NaN	NaN	-849.38	1015	185.65	-858.98	1024.5	454.7	-923.28	926.72	129.61	-965.61	958.62	493.44	-1050.6	1018.2	250.1	-1060.9	1025.9	356.86	-1068.9	988.11	303.57	-723.12	578.79	180.49	-733.53	583.93	319.48	-1107.7	567.57	458.99	-1093.8	559.85	326.93	-576.59	135.72	182.23	-584.37	125.06	268.7	-1324.8	140.64	396.15	-1270.9	161.56	304.79	-854.4	754	147.71	-796.64	780.91	156.09	-762.1	718.9	172.54	-819.32	690.61	160.77	-1039.6	798.07	489.11	-974.41	777.8	495.85	-1001.3	706.78	485.12	-1066.6	730.29	474.49	-706.62	476.39	194.61	-649.59	503.06	204.92	-629.66	457.28	211.36	-681.24	434.97	190.93	-1224	408.64	455.92	-1159.5	390.21	448.51	-1187	322.34	433.17	-1252.3	340.79	438.93	-589.75	41.872	179.14	-621.84	56.521	209.24	-601.3	34.22	245.01	-1403.8	122.74	361.68	-1390.6	154.69	331.42	-1380	124.23	301.04	-409.68	139.24	301.96	-415.95	137.48	190.75	-372.44	177.33	276.31	-1184.5	51.958	323.31	-1214.5	39.683	429.9	-1141.4	42.418	367.37
2	0.00418	-862.77	1493.5	499.82	-912.03	1514.9	95.117	-853.1	1828.5	308.19	-810.36	1469.2	295.21	-945.88	1548.7	303.62	NaN	NaN	NaN	NaN	NaN	NaN	-843.94	1014.4	185.21	-853.79	1024.1	454.27	-917.98	925.9	129.18	-960.67	958.21	492.82	-1045.2	1017.6	249.42	-1055.6	1025.4	356.16	-1063.7	987.6	302.84	-719.66	577.34	180.52	-730.11	582.5	319.51	-1103.3	567.5	458.75	-1089	559.48	326.78	-574.49	134.52	182.26	-582.41	123.91	268.87	-1323.4	141.94	396.37	-1269.3	162.52	305.08	-850.04	752.56	147.45	-792.23	779.42	155.7	-758.08	717.21	172.33	-815.43	689.23	160.79	-1034.9	797.95	488.48	-969.76	777.57	495.47	-996.76	706.57	484.82	-1062	730.18	473.96	-703.5	474.88	194.66	-646.39	501.37	204.98	-626.61	455.52	211.44	-678.25	433.4	190.98	-1220.6	409.36	455.85	-1156.2	390.4	448.51	-1184.2	322.77	433.28	-1249.4	341.72	438.95	-588.44	40.938	179.2	-620.24	55.861	209.34	-600.06	33.432	245.09	-1402.5	124.91	361.79	-1388.9	156.77	331.6	-1378.6	126.32	301.17	-407.65	136.67	302.1	-413.91	134.98	190.88	-370.16	174.5	276.51	-1184.3	51.995	323.31	-1214.3	39.745	430.03	-1141.4	42.374	367.36
3	0.00836	-857.76	1493.1	499.18	-907.12	1514.3	94.494	-848.31	1828	307.48	-805.37	1468.8	294.59	-940.96	1548.1	302.98	NaN	NaN	NaN	NaN	NaN	NaN	-838.25	1013.7	184.75	-848.35	1023.6	453.82	-912.45	925.06	128.72	-955.48	957.78	492.17	-1039.5	1017	248.7	-1050.1	1024.8	355.42	-1058.2	987.08	302.09	-716.04	575.87	180.54	-726.57	581.04	319.53	-1098.7	567.42	458.52	-1084	559.08	326.63	-572.34	133.3	182.28	-580.43	122.73	269.03	-1322	143.3	396.61	-1267.5	163.53	305.41	-845.5	751.11	147.16	-787.61	777.9	155.27	-753.87	715.47	172.08	-811.35	687.82	160.78	-1030	797.82	487.83	-964.88	777.32	495.07	-991.97	706.35	484.51	-1057.2	730.05	473.41	-700.26	473.35	194.7	-643.07	499.64	205.05	-623.46	453.73	211.53	-675.14	431.79	191.02	-1217	410.1	455.79	-1152.8	390.59	448.52	-1181.3	323.21	433.42	-1246.3	342.69	438.99	-587.12	39.997	179.26	-618.6	55.215	209.42	-598.82	32.657	245.16	-1401.1	127.2	361.93	-1387.2	158.95	331.82	-1377.2	128.51	301.33	-405.59	134	302.28	-411.83	132.37	191.05	-367.84	171.55	276.73	-1184.1	52.028	323.32	-1214.2	39.808	430.17	-1141.4	42.329	367.35
4	0.01254	-852.59	1492.7	498.52	-902.03	1513.7	93.846	-843.34	1827.6	306.75	-800.19	1468.4	293.95	-935.87	1547.5	302.31	NaN	NaN	NaN	NaN	NaN	NaN	-832.34	1013.1	184.26	-842.7	1023.1	453.34	-906.72	924.21	128.24	-950.09	957.34	491.51	-1033.7	1016.4	247.95	-1044.3	1024.2	354.65	-1052.5	986.56	301.3	-712.29	574.4	180.55	-722.93	579.58	319.53	-1093.9	567.32	458.29	-1078.8	558.65	326.5	-570.16	132.07	182.28	-578.46	121.54	269.19	-1320.4	144.71	396.89	-1265.7	164.58	305.77	-840.81	749.65	146.85	-782.82	776.35	154.83	-749.49	713.72	171.81	-807.12	686.4	160.74	-1024.8	797.67	487.16	-959.78	777.07	494.65	-986.97	706.12	484.2	-1052.1	729.92	472.85	-696.91	471.82	194.73	-639.64	497.89	205.12	-620.21	451.91	211.62	-671.94	430.17	191.05	-1213.2	410.87	455.75	-1149.2	390.78	448.55	-1178.2	323.66	433.58	-1243	343.7	439.05	-585.8	39.065	179.3	-616.94	54.599	209.48	-597.61	31.912	245.21	-1399.6	129.61	362.1	-1385.3	161.24	332.06	-1375.7	130.82	301.51	-403.54	131.25	302.49	-409.73	129.7	191.24	-365.51	168.52	277	-1183.9	52.058	323.34	-1214	39.872	430.33	-1141.4	42.284	367.34
